<svg width="792" height="283" viewBox="0 0 792 283" fill="none" xmlns="http://www.w3.org/2000/svg">
<path d="M551.833 73.1652C558.876 73.1652 563.019 78.2772 564.262 88.5011C564.365 89.0336 564.469 89.9921 564.572 91.3766C564.78 92.6546 564.935 93.6663 565.038 94.4118C565.142 95.1573 565.297 95.7431 565.505 96.1691C565.505 96.5951 565.608 97.0211 565.815 97.4471C566.126 98.2991 566.644 98.7251 567.369 98.7251C569.337 98.7251 571.874 98.1926 574.982 97.1276C578.089 96.0626 579.798 95.5301 580.109 95.5301C583.216 95.5301 584.77 97.1276 584.77 100.323C584.77 102.666 583.216 104.37 580.109 105.435C574.516 107.352 570.165 108.31 567.058 108.31C560.326 108.31 556.286 102.133 554.94 89.7791C554.318 85.0931 553.283 82.7501 551.833 82.7501C548.725 82.7501 544.79 86.4776 540.025 93.9326C538.264 96.7016 535.934 99.2576 533.034 101.601C530.134 103.944 527.182 105.115 524.178 105.115C521.174 105.115 518.792 104.05 517.031 101.92C515.271 99.7901 514.131 97.7666 513.613 95.8496C512.992 93.7196 512.008 89.0869 510.662 81.9514C509.315 74.8159 508.383 71.0352 507.865 70.6092C507.451 70.1832 507.088 69.9702 506.777 69.9702C505.327 69.9702 504.033 70.9287 502.893 72.8457C501.858 74.6562 500.666 77.2122 499.32 80.5136C497.974 83.8151 496.679 87.2231 495.436 90.7376C494.297 94.1456 493.364 96.7016 492.639 98.4056C491.914 100.003 490.93 101.867 489.688 103.997C487.409 107.937 484.302 109.908 480.366 109.908C477.673 109.908 475.394 108.949 473.53 107.032C471.665 105.115 470.215 102.666 469.18 99.6835C467.315 93.7196 466.331 87.6491 466.228 81.4721C466.228 75.1887 465.606 70.3962 464.363 67.0947C463.224 63.6867 461.826 61.9827 460.169 61.9827C454.783 61.9827 450.743 65.3907 448.05 72.2067C446.807 75.5082 445.461 80.1941 444.011 86.2646C441.939 94.4651 437.02 100.269 429.251 103.677C427.594 104.636 425.885 105.115 424.124 105.115C421.017 105.115 419.464 103.518 419.464 100.323C419.464 98.2991 421.017 96.6483 424.124 95.3703C425.367 94.8378 426.041 94.5716 426.144 94.5716C426.351 94.4651 426.766 94.2521 427.387 93.9326C428.008 93.6131 428.423 93.4001 428.63 93.2936C428.837 93.0806 429.2 92.8143 429.717 92.4948C430.339 92.0688 430.753 91.6961 430.96 91.3766C431.271 90.9506 431.634 90.4714 432.048 89.9389C432.566 89.4063 432.928 88.8739 433.135 88.3414C433.964 86.7439 434.689 84.6671 435.311 82.1111C435.932 79.5551 436.502 77.4252 437.02 75.7212C437.537 74.0172 438.521 71.4079 439.971 67.8935C441.421 64.2725 442.923 61.5567 444.477 59.7462C446.031 57.9357 448.154 56.285 450.847 54.794C453.643 53.1965 457.01 52.3978 460.945 52.3978C464.985 52.3978 468.403 54.794 471.199 59.5865C474.099 64.2725 475.549 71.4612 475.549 81.1526C475.549 84.5606 475.912 88.6076 476.637 93.2936C477.466 97.9796 478.709 100.323 480.366 100.323C481.194 100.323 482.075 99.2043 483.007 96.9678C483.939 94.6248 484.716 92.6546 485.337 91.0571C485.959 89.3531 486.684 87.3296 487.512 84.9866C490.62 75.9342 493.675 69.5974 496.679 65.9765C499.683 62.249 503.049 60.3852 506.777 60.3852C511.128 60.3852 514.235 62.4087 516.099 66.4557C517.653 69.9702 518.74 73.4314 519.362 76.8394C521.433 89.2999 522.935 95.5301 523.867 95.5301C526.975 95.5301 530.91 91.8026 535.675 84.3476C537.436 81.5786 539.766 79.0227 542.666 76.6797C545.566 74.3367 548.622 73.1652 551.833 73.1652Z" fill="#ED2E7E"/>
<path d="M588.498 100.642C588.395 100.642 587.618 101.068 586.168 101.92C582.439 104.05 579.694 105.115 577.934 105.115C574.826 105.115 573.273 103.518 573.273 100.323C573.273 98.2991 574.826 96.6483 577.934 95.3703C578.452 95.1573 579.694 94.5183 581.662 93.4533C583.63 92.3883 584.77 91.7493 585.08 91.5363C584.666 90.5778 584.459 89.1401 584.459 87.2231C584.459 77.6382 587.721 69.4377 594.247 62.6217C600.772 55.8058 606.728 52.3978 612.113 52.3978C617.499 52.3978 621.746 53.729 624.853 56.3915C627.96 58.9475 629.514 62.0892 629.514 65.8167C629.514 69.4377 628.686 72.5794 627.028 75.2419C625.371 77.9044 622.782 80.5136 619.26 83.0696C614.392 86.6906 607.297 90.8973 597.975 95.6898C602.118 98.7783 607.867 100.323 615.221 100.323C622.575 100.323 629.825 99.0978 636.972 96.6483C639.147 95.9028 640.389 95.5301 640.7 95.5301C643.807 95.5301 645.361 97.1276 645.361 100.323C645.361 102.666 643.807 104.37 640.7 105.435C632 108.417 623.61 109.908 615.531 109.908C604.035 109.908 595.024 106.819 588.498 100.642ZM593.781 87.2231C611.388 78.1706 620.192 71.3547 620.192 66.7752C620.192 63.5802 617.603 61.9827 612.424 61.9827C609.317 61.9827 605.433 64.5387 600.772 69.6507C596.111 74.6562 593.781 80.5136 593.781 87.2231Z" fill="#ED2E7E"/>
<path d="M654.588 48.2443C654.485 46.7533 654.433 44.4103 654.433 41.2153C654.433 29.7134 655.469 17.5724 657.54 4.79247C658.058 1.59749 659.612 0 662.201 0C665.308 0 666.862 1.54424 666.862 4.63273C666.862 5.16522 666.758 6.07047 666.551 7.34847C664.687 18.8504 663.755 30.1394 663.755 41.2153V46.487C677.323 44.0376 687.163 42.8128 693.274 42.8128C696.381 42.8128 697.934 44.4103 697.934 47.6053C697.934 50.8003 696.381 52.3978 693.274 52.3978C687.266 52.3978 677.582 53.6225 664.221 56.072C666.396 85.5724 675.562 100.323 691.72 100.323C695.345 100.323 699.851 99.5238 705.236 97.9263C710.622 96.3288 713.471 95.5301 713.781 95.5301C716.889 95.5301 718.442 97.1276 718.442 100.323C718.442 102.666 716.889 104.37 713.781 105.435C705.081 108.417 697.727 109.908 691.72 109.908C682.087 109.908 673.957 105.861 667.328 97.7666C660.699 89.6726 656.608 76.3602 655.054 57.8292L651.481 58.628C650.549 58.7345 649.979 58.7877 649.772 58.7877C646.665 58.7877 645.111 57.1902 645.111 53.9953C645.111 51.4393 646.665 49.8418 649.772 49.2028C651.74 48.7768 653.345 48.4573 654.588 48.2443Z" fill="#ED2E7E"/>
<path d="M781.903 96.8081C781.903 96.8081 783.56 96.3821 786.875 95.5301C789.982 95.5301 791.536 97.1276 791.536 100.323C791.536 102.666 789.982 104.37 786.875 105.435C785.01 106.074 783.146 106.393 781.282 106.393C779.521 106.393 777.812 105.967 776.155 105.115C774.498 104.263 773.203 102.985 772.271 101.281C770.717 98.5121 769.578 95.5301 768.853 92.3351L768.231 89.6193C766.47 92.7078 762.172 96.3288 755.336 100.482C748.604 104.636 741.405 106.713 733.741 106.713C729.598 106.713 725.973 105.115 722.865 101.92C719.758 98.7251 718.204 94.9976 718.204 90.7376C718.204 80.4072 722.347 71.4612 730.633 63.8997C738.919 56.2318 747.309 52.3978 755.802 52.3978C760.463 52.3978 764.451 53.303 767.765 55.1135C771.183 56.8175 772.892 58.5747 772.892 60.3852C772.892 63.5802 771.339 65.1777 768.231 65.1777C767.61 65.1777 766.108 64.6452 763.726 63.5802C761.344 62.5152 758.702 61.9827 755.802 61.9827C750.209 61.9827 744.098 64.805 737.469 70.4494C730.841 75.9874 727.526 82.7501 727.526 90.7376C727.526 92.3351 728.148 93.8261 729.391 95.2106C730.737 96.4886 732.187 97.1276 733.741 97.1276C739.852 97.1276 745.548 95.4768 750.831 92.1753C756.113 88.7674 759.479 85.9984 760.929 83.8684C762.379 81.6319 763.57 79.6084 764.503 77.7979C765.435 75.9874 766.108 74.8159 766.522 74.2834C767.04 73.6444 768.076 73.3249 769.63 73.3249C771.183 73.3249 772.374 73.9107 773.203 75.0822C774.031 76.2537 774.808 78.1174 775.533 80.6734C776.258 83.1229 776.983 85.8919 777.708 88.9804C778.433 92.0688 779.055 94.1456 779.573 95.2106C780.194 96.2756 780.971 96.8081 781.903 96.8081Z" fill="#ED2E7E"/>
<path d="M18.8867 280.342C15.2569 280.342 12.024 279.513 9.18814 277.854C6.35229 276.196 4.08362 273.986 2.38211 271.222C0.794037 268.348 0 265.253 0 261.937C0 258.4 0.850754 255.305 2.55226 252.652C4.3672 249.888 6.97618 247.401 10.3792 245.19L50.3646 220.485C52.0661 219.49 53.1438 218.495 53.5975 217.501C54.1647 216.506 54.4482 215.456 54.4482 214.35C54.4482 213.024 53.8811 211.808 52.7467 210.702C51.6124 209.486 50.1378 208.879 48.3228 208.879H4.25377V195.78H53.087C56.6035 195.78 59.7229 196.609 62.4453 198.267C65.2812 199.925 67.4931 202.191 69.0812 205.065C70.7827 207.828 71.6335 210.868 71.6335 214.184C71.6335 217.611 70.726 220.761 68.9111 223.635C67.2095 226.399 64.714 228.831 61.4244 230.931L21.439 255.636C19.7375 256.631 18.6031 257.626 18.036 258.621C17.5822 259.616 17.3554 260.666 17.3554 261.771C17.3554 263.098 17.9225 264.369 19.0569 265.585C20.1912 266.69 21.7226 267.243 23.651 267.243H70.1021V280.342H18.8867Z" fill="#1D2758"/>
<path d="M135.396 280.342C125.868 280.342 117.417 278.628 110.044 275.202C102.67 271.664 96.8853 266.745 92.6883 260.445C88.6047 254.033 86.5629 246.572 86.5629 238.061C86.5629 229.66 88.3211 222.143 91.8375 215.511C95.354 208.768 100.232 203.462 106.471 199.593C112.709 195.724 119.969 193.79 128.25 193.79C137.211 193.79 144.641 195.669 150.54 199.427C156.552 203.186 161.032 208.271 163.981 214.682C166.931 220.982 168.405 228.057 168.405 235.905C168.405 237.121 168.349 238.392 168.235 239.719C168.235 241.045 168.122 242.206 167.895 243.201H103.238C103.805 248.396 105.563 252.818 108.512 256.465C111.462 260.003 115.205 262.711 119.742 264.59C124.393 266.358 129.498 267.243 135.056 267.243H157.686V280.342H135.396ZM103.067 232.423H152.581C152.581 230.323 152.354 228.112 151.901 225.791C151.447 223.359 150.653 221.038 149.519 218.827C148.384 216.506 146.853 214.461 144.925 212.692C143.11 210.813 140.784 209.321 137.948 208.215C135.226 207.11 131.993 206.557 128.25 206.557C124.28 206.557 120.763 207.331 117.7 208.879C114.751 210.316 112.199 212.305 110.044 214.848C107.888 217.279 106.244 220.043 105.109 223.138C103.975 226.233 103.294 229.328 103.067 232.423Z" fill="#1D2758"/>
<path d="M186.154 280.342V219.822C186.154 212.305 188.309 206.447 192.62 202.246C197.044 197.935 203.113 195.78 210.826 195.78H228.692V208.879H213.719C209.975 208.879 207.026 209.929 204.871 212.029C202.829 214.129 201.808 217.058 201.808 220.817V280.342H186.154Z" fill="#1D2758"/>
<path d="M282.295 282.331C273.447 282.331 265.62 280.397 258.814 276.528C252.008 272.549 246.62 267.243 242.65 260.61C238.679 253.868 236.694 246.351 236.694 238.061C236.694 229.77 238.679 222.309 242.65 215.677C246.62 208.934 252.008 203.628 258.814 199.759C265.62 195.78 273.447 193.79 282.295 193.79C291.143 193.79 298.969 195.78 305.776 199.759C312.695 203.628 318.083 208.879 321.94 215.511C325.91 222.143 327.895 229.66 327.895 238.061C327.895 246.351 325.91 253.868 321.94 260.61C318.083 267.243 312.695 272.549 305.776 276.528C298.969 280.397 291.143 282.331 282.295 282.331ZM282.295 269.232C288.307 269.232 293.525 267.851 297.949 265.087C302.372 262.324 305.832 258.621 308.328 253.978C310.823 249.225 312.071 243.919 312.071 238.061C312.071 232.202 310.823 226.952 308.328 222.309C305.832 217.556 302.372 213.797 297.949 211.034C293.525 208.271 288.307 206.889 282.295 206.889C276.396 206.889 271.178 208.271 266.641 211.034C262.217 213.797 258.757 217.556 256.262 222.309C253.766 226.952 252.518 232.202 252.518 238.061C252.518 243.919 253.766 249.225 256.262 253.978C258.757 258.621 262.217 262.324 266.641 265.087C271.178 267.851 276.396 269.232 282.295 269.232Z" fill="#1D2758"/>
<path d="M442.436 280.341V159.302H458.09V206.723C461.606 202.301 465.86 199.04 470.851 196.94C475.955 194.84 481.23 193.79 486.675 193.79C494.388 193.79 501.081 195.393 506.753 198.598C512.425 201.693 516.848 206.059 520.025 211.697C523.201 217.334 524.789 223.911 524.789 231.428V280.341H509.135V231.594C509.135 226.509 507.944 222.143 505.562 218.495C503.18 214.737 500.003 211.863 496.033 209.873C492.177 207.883 488.036 206.889 483.612 206.889C479.188 206.889 475.048 207.883 471.191 209.873C467.335 211.752 464.158 214.516 461.663 218.163C459.281 221.811 458.09 226.177 458.09 231.262V280.341H442.436Z" fill="#1D2758"/>
<path d="M591.978 280.341C582.45 280.341 573.999 278.628 566.626 275.201C559.253 271.664 553.468 266.745 549.271 260.444C545.187 254.033 543.145 246.572 543.145 238.06C543.145 229.659 544.903 222.143 548.42 215.511C551.936 208.768 556.814 203.462 563.053 199.593C569.292 195.724 576.551 193.79 584.832 193.79C593.793 193.79 601.223 195.669 607.122 199.427C613.134 203.185 617.614 208.27 620.564 214.681C623.513 220.982 624.988 228.057 624.988 235.905C624.988 237.121 624.931 238.392 624.817 239.718C624.817 241.045 624.704 242.206 624.477 243.2H559.82C560.387 248.396 562.145 252.817 565.095 256.465C568.044 260.002 571.787 262.71 576.324 264.59C580.975 266.358 586.08 267.242 591.638 267.242H614.268V280.341H591.978ZM559.65 232.423H609.164C609.164 230.323 608.937 228.112 608.483 225.791C608.029 223.359 607.235 221.037 606.101 218.827C604.967 216.505 603.435 214.46 601.507 212.692C599.692 210.813 597.366 209.32 594.531 208.215C591.808 207.11 588.575 206.557 584.832 206.557C580.862 206.557 577.345 207.331 574.283 208.878C571.333 210.315 568.781 212.305 566.626 214.847C564.471 217.279 562.826 220.043 561.692 223.138C560.557 226.233 559.877 229.328 559.65 232.423Z" fill="#1D2758"/>
<path d="M642.736 280.341V219.822C642.736 212.305 644.892 206.446 649.202 202.246C653.626 197.935 659.695 195.779 667.408 195.779H685.274V208.878H670.301C666.558 208.878 663.608 209.928 661.453 212.029C659.411 214.129 658.39 217.058 658.39 220.816V280.341H642.736Z" fill="#1D2758"/>
<path d="M738.877 282.331C730.029 282.331 722.202 280.397 715.396 276.528C708.59 272.548 703.202 267.242 699.232 260.61C695.262 253.867 693.277 246.351 693.277 238.06C693.277 229.77 695.262 222.309 699.232 215.676C703.202 208.933 708.59 203.628 715.396 199.759C722.202 195.779 730.029 193.79 738.877 193.79C747.725 193.79 755.552 195.779 762.358 199.759C769.277 203.628 774.665 208.878 778.522 215.511C782.492 222.143 784.477 229.659 784.477 238.06C784.477 246.351 782.492 253.867 778.522 260.61C774.665 267.242 769.277 272.548 762.358 276.528C755.552 280.397 747.725 282.331 738.877 282.331ZM738.877 269.232C744.889 269.232 750.107 267.85 754.531 265.087C758.955 262.324 762.415 258.62 764.91 253.978C767.406 249.225 768.653 243.919 768.653 238.06C768.653 232.202 767.406 226.951 764.91 222.309C762.415 217.555 758.955 213.797 754.531 211.034C750.107 208.27 744.889 206.889 738.877 206.889C732.978 206.889 727.76 208.27 723.223 211.034C718.799 213.797 715.339 217.555 712.844 222.309C710.348 226.951 709.101 232.202 709.101 238.06C709.101 243.919 710.348 249.225 712.844 253.978C715.339 258.62 718.799 262.324 723.223 265.087C727.76 267.85 732.978 269.232 738.877 269.232Z" fill="#1D2758"/>
<path d="M342.524 268.238C356.93 256.963 368.217 247.733 376.384 240.548C384.551 233.252 391.414 225.68 396.972 217.832C402.644 209.873 405.48 202.08 405.48 194.453C405.48 187.268 403.665 181.631 400.035 177.541C396.519 173.34 390.79 171.24 382.85 171.24C375.136 171.24 369.124 173.617 364.814 178.37C360.617 183.012 358.348 189.258 358.008 197.106H343.035C343.488 184.726 347.345 175.164 354.605 168.421C361.865 161.679 371.223 158.307 382.68 158.307C394.363 158.307 403.608 161.457 410.414 167.758C417.334 174.059 420.794 182.736 420.794 193.79C420.794 202.965 417.958 211.918 412.286 220.651C406.728 229.273 400.375 236.9 393.229 243.532C386.083 250.054 376.951 257.681 365.835 266.414H424.367V279.015H342.524V268.238Z" fill="#0094DA"/>
</svg>
